<?xml version="1.0" standalone="no"?>
<!DOCTYPE svg PUBLIC "-//W3C//DTD SVG 20010904//EN"
 "http://www.w3.org/TR/2001/REC-SVG-20010904/DTD/svg10.dtd">
<svg version="1.0" xmlns="http://www.w3.org/2000/svg"
 width="1024.000000pt" height="235.000000pt" viewBox="0 0 1024.000000 235.000000"
 preserveAspectRatio="xMidYMid meet">

<g transform="translate(0.000000,235.000000) scale(0.100000,-0.100000)"
fill="#000000" stroke="none">
<path d="M1060 2031 c0 -5 -29 -283 -65 -618 -36 -334 -65 -626 -65 -649 0
-75 1 -76 312 -77 242 -2 277 0 305 15 20 11 66 66 122 147 l91 129 -39 67
c-22 36 -41 69 -44 71 -3 3 -46 -54 -97 -126 -51 -72 -101 -135 -111 -140 -10
-6 -92 -10 -182 -10 -135 0 -167 3 -177 15 -11 13 -2 119 44 573 31 306 59
569 62 585 l6 27 -81 0 c-45 0 -81 -4 -81 -9z"/>
<path d="M2140 1788 c-96 -137 -176 -256 -178 -264 -4 -14 68 -144 79 -144 6
0 430 594 462 647 6 10 -11 13 -90 13 l-98 -1 -175 -251z"/>
<path d="M2691 2013 c-16 -16 -149 -200 -295 -410 l-266 -383 136 -237 c75
-131 149 -250 165 -265 l29 -28 891 0 891 0 29 29 29 29 0 617 0 617 -29 29
-29 29 -761 0 -761 0 -29 -27z m761 -273 c52 -15 94 -53 113 -103 14 -37 16
-82 13 -308 -3 -244 -5 -267 -23 -299 -31 -53 -95 -82 -172 -78 -67 4 -100 21
-137 72 -20 26 -21 43 -24 311 -3 267 -2 286 17 323 37 73 125 106 213 82z
m-428 -14 c49 -20 84 -64 96 -118 12 -60 13 -468 0 -522 -11 -49 -37 -85 -81
-111 -28 -16 -56 -21 -151 -24 l-118 -3 0 396 0 396 110 0 c72 0 122 -5 144
-14z m767 -143 l0 -158 62 157 62 158 53 0 c28 0 52 -4 52 -9 0 -6 -25 -74
-55 -153 -30 -78 -55 -150 -55 -158 0 -8 27 -113 60 -233 33 -119 60 -221 60
-227 0 -5 -24 -10 -53 -10 l-53 0 -39 143 c-21 78 -41 148 -45 155 -4 9 -15
-6 -28 -39 -18 -42 -22 -72 -22 -155 l0 -104 -55 0 -55 0 0 395 0 395 55 0 55
0 1 -157z"/>
<path d="M3364 1632 c-30 -20 -34 -55 -34 -287 0 -147 4 -244 11 -256 14 -27
53 -41 83 -29 41 15 48 67 44 316 -3 201 -5 224 -22 243 -19 21 -61 28 -82 13z"/>
<path d="M2880 1351 l0 -291 45 0 c32 0 51 6 65 20 19 19 20 33 20 268 0 284
1 280 -85 289 l-45 6 0 -292z"/>
<path d="M420 1680 l0 -80 270 0 270 0 0 80 0 80 -270 0 -270 0 0 -80z"/>
<path d="M1276 1728 c-3 -18 -7 -54 -10 -80 l-6 -48 148 0 c124 0 150 -3 169
-18 12 -9 135 -214 273 -454 l252 -438 88 0 87 0 -292 512 c-194 340 -302 518
-321 532 -26 19 -45 21 -206 24 l-177 3 -5 -33z"/>
<path d="M430 1300 c-11 -11 -22 -30 -25 -42 -7 -32 -95 -862 -95 -898 l0 -30
75 0 c69 0 75 2 79 23 3 12 22 191 42 397 27 279 41 379 52 393 13 15 35 17
163 17 l147 0 7 63 c3 34 9 70 11 80 5 16 -10 17 -215 17 -207 0 -222 -1 -241
-20z"/>
<path d="M1230 1240 l0 -80 153 0 c178 0 187 4 187 82 0 74 -11 78 -188 78
l-152 0 0 -80z"/>
<path d="M1046 557 c-14 -10 -23 -39 -33 -107 -14 -98 -9 -120 26 -120 39 0
51 23 64 119 11 88 10 94 -8 107 -23 17 -27 17 -49 1z m49 -17 c3 -5 0 -48 -6
-95 -10 -67 -16 -88 -32 -96 -35 -19 -42 2 -29 96 6 47 14 90 17 95 8 13 42
13 50 0z"/>
<path d="M1171 553 c-27 -24 -51 -183 -31 -208 27 -33 80 -3 80 46 -1 22 -2
22 -14 -7 -18 -40 -34 -50 -51 -33 -11 11 -12 29 -3 94 12 87 20 105 49 105
15 0 19 -7 19 -31 0 -17 4 -28 10 -24 17 11 11 54 -9 65 -25 13 -25 13 -50 -7z"/>
<path d="M1912 554 c-32 -22 -29 -67 9 -113 32 -41 33 -83 2 -95 -20 -8 -46
13 -39 31 3 7 1 13 -4 13 -14 0 -12 -34 2 -48 29 -29 78 3 78 50 0 14 -13 42
-30 63 -33 42 -35 48 -20 76 20 36 56 23 51 -18 -1 -7 3 -13 9 -13 18 0 11 49
-9 60 -25 13 -22 13 -49 -6z"/>
<path d="M891 468 c-7 -51 -15 -103 -18 -115 -4 -20 -1 -23 24 -23 51 0 65 19
79 111 17 107 14 119 -35 119 l-38 0 -12 -92z m73 21 c-2 -91 -12 -129 -40
-141 -13 -6 -27 -9 -30 -5 -6 5 12 166 22 195 2 7 14 12 26 10 21 -3 23 -8 22
-59z"/>
<path d="M1261 459 c-9 -77 -9 -104 0 -115 16 -19 43 -18 61 4 14 15 38 139
38 194 0 44 -10 9 -24 -87 -13 -87 -25 -114 -47 -115 -27 0 -28 51 -4 188 3
17 2 32 -3 32 -4 0 -14 -45 -21 -101z"/>
<path d="M1391 463 c-7 -54 -14 -106 -17 -115 -3 -10 -1 -18 4 -18 6 0 13 27
17 61 4 33 10 73 14 87 7 24 8 22 15 -20 4 -27 11 -48 15 -48 4 0 17 19 29 43
l22 42 -6 -60 c-3 -33 -8 -71 -11 -84 -4 -15 -2 -22 4 -18 6 4 16 48 22 99 7
51 15 101 17 111 12 40 -14 13 -41 -44 -32 -66 -35 -65 -50 24 -3 20 -9 37
-14 37 -4 0 -13 -44 -20 -97z"/>
<path d="M1556 528 c-11 -65 -26 -177 -26 -187 0 -6 15 -10 33 -10 24 1 26 3
9 6 -21 4 -23 9 -20 51 3 43 5 47 31 50 35 4 36 22 1 22 -24 0 -26 3 -20 31 3
17 6 37 6 45 0 7 14 15 33 17 32 4 32 4 -5 5 -35 2 -37 0 -42 -30z"/>
<path d="M1668 554 c-8 -14 -32 -213 -26 -219 3 -3 11 36 18 87 7 51 15 86 18
78 3 -8 15 -51 28 -95 12 -44 24 -73 28 -65 11 28 33 220 25 220 -4 0 -11 -30
-15 -67 -12 -119 -18 -124 -38 -37 -20 85 -30 112 -38 98z"/>
<path d="M1811 553 c14 -3 14 -13 3 -91 -14 -90 -17 -139 -9 -131 2 3 9 38 15
79 19 134 20 139 38 143 9 3 -1 5 -23 5 -22 0 -33 -2 -24 -5z"/>
<path d="M2071 478 c-7 -46 -14 -98 -18 -115 -4 -25 -2 -33 10 -33 10 0 16 15
21 50 7 49 7 50 42 50 42 0 43 23 1 28 -24 3 -27 7 -27 43 0 38 1 39 35 39 19
0 35 5 35 10 0 6 -20 10 -44 10 l-44 0 -11 -82z"/>
<path d="M2210 553 c0 -5 -7 -51 -15 -103 -20 -128 -22 -120 30 -120 33 0 45
4 45 15 0 10 -10 15 -30 15 -16 0 -30 3 -30 8 0 8 17 120 25 165 3 19 0 27
-10 27 -8 0 -15 -3 -15 -7z"/>
<path d="M2336 538 c-7 -33 -26 -176 -26 -193 0 -11 12 -15 45 -15 33 0 45 4
45 15 0 10 -10 15 -30 15 -25 0 -30 4 -30 24 0 41 11 56 40 56 16 0 32 5 35
10 4 6 -9 10 -31 10 -33 0 -36 2 -30 23 3 12 6 30 6 40 0 13 8 17 35 17 19 0
35 5 35 10 0 6 -20 10 -45 10 -38 0 -45 -3 -49 -22z"/>
<path d="M2460 557 c0 -2 7 -27 16 -56 l15 -52 -30 -53 c-34 -58 -36 -66 -21
-66 5 0 20 18 32 40 13 22 26 40 30 40 4 0 10 -16 14 -35 6 -35 20 -53 31 -41
3 3 -1 30 -9 60 l-16 54 30 52 c16 28 27 54 24 57 -9 9 -33 -15 -46 -47 -15
-36 -26 -32 -34 15 -4 21 -13 35 -21 35 -8 0 -15 -1 -15 -3z"/>
<path d="M2616 529 c-16 -91 -26 -166 -25 -184 l0 -20 8 20 c11 28 34 205 28
212 -3 3 -8 -10 -11 -28z"/>
<path d="M2676 548 c-7 -20 -26 -166 -26 -193 0 -21 5 -25 28 -25 44 0 66 31
60 84 -3 25 -1 49 4 54 5 5 8 27 6 48 -3 36 -6 39 -36 42 -20 2 -34 -2 -36
-10z m62 -25 c5 -31 -15 -63 -38 -63 -21 0 -26 23 -14 68 9 30 48 27 52 -5z
m-12 -98 c10 -26 -6 -65 -31 -77 -14 -6 -27 -9 -30 -6 -3 2 -2 26 1 51 6 41
10 47 31 47 13 0 26 -7 29 -15z"/>
<path d="M2791 463 c-7 -54 -14 -106 -17 -115 -3 -10 -1 -18 4 -18 5 0 15 42
21 93 7 50 15 102 18 115 3 12 1 22 -4 22 -5 0 -15 -44 -22 -97z"/>
<path d="M2852 480 c-7 -47 -15 -100 -19 -117 -5 -33 -5 -33 33 -32 30 2 33 3
12 6 -32 5 -33 11 -17 113 6 38 9 80 7 92 -2 13 -9 -15 -16 -62z"/>
<path d="M2956 549 c-14 -42 -32 -228 -22 -218 7 6 36 223 31 228 -3 2 -7 -2
-9 -10z"/>
<path d="M3013 553 c14 -4 17 -11 13 -31 -14 -70 -27 -184 -22 -189 3 -3 7 5
10 18 6 25 26 174 26 189 0 5 8 11 18 13 9 3 -1 5 -23 5 -22 0 -32 -2 -22 -5z"/>
<path d="M3096 528 c4 -18 7 -71 7 -118 l0 -85 12 56 c6 31 22 82 35 113 12
31 20 59 17 62 -3 3 -13 -15 -22 -40 -20 -53 -35 -51 -35 5 0 21 -5 39 -11 39
-7 0 -8 -11 -3 -32z"/>
<path d="M3290 553 c0 -5 -7 -53 -15 -108 -17 -119 -18 -124 -5 -105 5 8 10
27 10 42 0 36 10 58 26 58 12 0 15 -11 27 -90 3 -14 5 0 6 31 0 30 6 60 12 66
16 16 27 78 17 97 -9 16 -78 24 -78 9z m68 -35 c5 -39 -14 -68 -45 -68 -23 0
-25 3 -19 31 3 17 6 40 6 51 0 15 6 19 28 16 21 -2 28 -9 30 -30z"/>
<path d="M3415 548 c-6 -20 -25 -166 -25 -193 0 -22 4 -25 33 -24 31 2 31 2 3
6 -26 4 -28 7 -22 35 3 17 6 39 6 49 0 14 7 19 31 19 17 0 28 4 24 10 -3 6
-15 10 -26 10 -13 0 -19 7 -19 23 0 45 12 66 39 70 23 3 22 4 -7 6 -18 0 -34
-4 -37 -11z"/>
<path d="M3520 548 c0 -15 -17 -138 -25 -185 -6 -31 -4 -33 23 -33 51 0 64 19
78 114 7 48 10 94 7 102 -7 18 -83 19 -83 2z m64 -48 c-1 -93 -14 -140 -40
-152 -13 -6 -27 -8 -30 -5 -4 3 -1 51 6 107 13 100 14 101 39 98 24 -3 26 -7
25 -48z"/>
<path d="M3641 478 c-7 -46 -14 -98 -18 -115 -5 -33 -5 -33 33 -32 30 2 33 3
12 6 -23 4 -28 10 -28 31 0 51 11 72 36 72 13 0 24 5 24 10 0 6 -12 10 -26 10
-22 0 -25 3 -20 23 3 12 6 32 6 44 0 17 7 23 33 26 l32 4 -36 1 -37 2 -11 -82z"/>
<path d="M3756 543 c-2 -10 -10 -60 -17 -111 -13 -98 -7 -140 8 -50 7 48 11
53 38 59 l30 7 -27 1 c-30 1 -33 12 -22 69 5 24 13 32 33 35 23 4 23 4 -6 6
-22 1 -33 -4 -37 -16z"/>
<path d="M3851 468 c-7 -51 -15 -104 -18 -118 -4 -17 -2 -22 5 -15 11 11 42
225 31 225 -3 0 -12 -42 -18 -92z"/>
<path d="M3916 529 c-11 -59 -26 -173 -25 -189 1 -33 17 30 24 93 4 37 11 67
15 67 3 0 15 -36 25 -80 10 -45 22 -83 26 -85 4 -3 12 32 18 78 7 45 14 98 17
117 4 25 3 31 -4 21 -6 -8 -13 -45 -17 -83 -4 -37 -11 -68 -15 -68 -4 0 -16
33 -25 73 -21 86 -32 101 -39 56z"/>
<path d="M4051 468 c-7 -51 -15 -103 -18 -115 -5 -21 -2 -23 33 -22 31 2 33 3
12 6 -30 5 -33 16 -22 72 5 24 12 31 30 31 13 0 24 5 24 10 0 6 -10 10 -23 10
-22 0 -23 3 -18 42 5 38 10 44 36 49 30 7 30 7 -6 8 l-36 1 -12 -92z"/>
<path d="M4165 528 c-32 -192 -32 -198 3 -198 49 0 61 18 74 111 14 105 10
119 -36 119 -32 0 -36 -3 -41 -32z m70 12 c10 -17 -16 -170 -32 -186 -19 -18
-49 -14 -46 6 20 171 25 190 48 190 13 0 27 -4 30 -10z"/>
<path d="M3153 331 c0 -11 5 -17 9 -15 11 7 10 34 -1 34 -6 0 -9 -9 -8 -19z"/>
</g>
</svg>
