<?xml version="1.0" encoding="utf-8"?>
 <svg width="100%" height="100%" viewBox="0 0 442 219" version="1.1" xmlns:xlink="http://www.w3.org/1999/xlink" xmlns="http://www.w3.org/2000/svg"> <defs>
    <path d="M442 0L442 0L442 219L0 219L0 0L442 0Z" id="path_1" />
    <path d="M349.625 115.48C349.625 125.665 341.96 132.175 331.775 132.175C321.59 132.175 313.925 125.665 313.925 115.48L313.925 69.07C313.925 58.885 321.59 52.375 331.775 52.375C341.96 52.375 349.625 58.885 349.625 69.07L349.625 115.48L349.625 115.48ZM286.625 131.65L268.775 131.65L268.775 52.9L286.625 52.9C296.81 52.9 304.475 59.41 304.475 69.595L304.475 114.955C304.475 125.14 296.81 131.65 286.625 131.65L286.625 131.65ZM371.15 131.65L360.125 131.65L360.125 52.9L371.15 52.9L371.15 85.135L383.645 52.9L394.67 52.9L382.49 84.82L395.405 131.65L384.38 131.65L375.665 99.94L371.15 111.175L371.15 131.65L371.15 131.65ZM324.95 112.96C324.95 119.05 327.785 121.675 331.775 121.675C335.765 121.675 338.6 119.05 338.6 112.96L338.6 71.59C338.6 65.5 335.765 62.875 331.775 62.875C327.785 62.875 324.95 65.5 324.95 71.59L324.95 112.96L324.95 112.96ZM279.8 63.4L279.8 121.15L286.625 121.15C290.615 121.15 293.45 118.525 293.45 112.435L293.45 72.115C293.45 66.025 290.615 63.4 286.625 63.4L279.8 63.4L279.8 63.4Z" id="path_2" />
    <path d="M79.178 193.83L83.611 193.83C86.277 193.83 88.292 192.032 88.695 189.273L90.679 175.137C91.051 172.378 89.532 170.58 86.866 170.58L82.433 170.58L79.178 193.83ZM80.697 192.559L83.611 171.851L86.711 171.851C88.571 171.851 89.625 173.091 89.253 175.633L87.424 188.777C87.083 191.319 85.657 192.559 83.797 192.559L80.697 192.559ZM96.166 193.985C98.832 193.985 100.847 192.187 101.25 189.428L103.265 174.982C103.668 172.223 102.149 170.425 99.483 170.425C96.817 170.425 94.802 172.223 94.399 174.982L92.384 189.428C92.012 192.187 93.5 193.985 96.166 193.985L96.166 193.985ZM96.352 192.714C94.492 192.714 93.407 191.474 93.779 188.932L95.67 175.478C96.042 172.936 97.437 171.696 99.297 171.696C101.157 171.696 102.242 172.936 101.87 175.478L99.979 188.932C99.638 191.474 98.212 192.714 96.352 192.714L96.352 192.714ZM108.752 193.985C111.418 193.985 113.464 192.156 113.836 189.428L114.239 186.514L112.906 186.514L112.565 188.932C112.193 191.474 110.798 192.714 108.938 192.714C107.078 192.714 105.993 191.474 106.365 188.932L108.256 175.478C108.628 172.936 110.023 171.696 111.883 171.696C113.743 171.696 114.828 172.936 114.456 175.478L114.115 177.865L115.448 177.865L115.851 174.982C116.223 172.254 114.735 170.425 112.069 170.425C109.403 170.425 107.388 172.223 106.985 174.982L104.97 189.428C104.598 192.187 106.086 193.985 108.752 193.985L108.752 193.985ZM120.811 193.985C123.477 193.985 125.492 192.187 125.895 189.428L128.53 170.58L127.197 170.58L124.624 188.932C124.252 191.474 122.857 192.714 120.997 192.714C119.137 192.714 118.052 191.474 118.424 188.932L120.997 170.58L119.664 170.58L117.029 189.428C116.626 192.187 118.145 193.985 120.811 193.985L120.811 193.985ZM129.305 193.83L130.638 193.83L133.304 174.858L135.412 186.7L136.373 186.7L141.829 174.858L139.163 193.83L140.496 193.83L143.751 170.58L142.48 170.58L136.28 184.003L133.831 170.58L132.56 170.58L129.305 193.83ZM144.836 193.83L151.47 193.83L151.656 192.59L146.355 192.59L147.719 182.701L153.02 182.701L153.206 181.461L147.905 181.461L149.269 171.82L154.57 171.82L154.725 170.58L148.091 170.58L144.836 193.83ZM155.469 193.83L156.709 193.83L159.437 174.517L164.49 193.83L165.482 193.83L168.737 170.58L167.497 170.58L164.8 189.862L159.716 170.58L158.724 170.58L155.469 193.83ZM171.558 193.83L172.891 193.83L175.991 171.851L179.06 171.851L179.215 170.58L171.837 170.58L171.682 171.851L174.658 171.851L171.558 193.83ZM182.842 193.985C185.508 193.985 187.523 192.156 187.926 189.428L188.143 187.94C188.546 185.243 186.407 183.352 185.012 181.74C183.493 179.973 181.974 178.33 182.222 176.47L182.346 175.478C182.656 172.936 184.113 171.696 185.973 171.696C187.833 171.696 188.918 172.936 188.546 175.478L188.329 176.935L189.662 176.935L189.941 174.982C190.344 172.254 188.825 170.425 186.159 170.425C183.493 170.425 181.416 172.254 181.075 174.982L180.889 176.47C180.548 179.167 182.408 180.934 183.927 182.701C185.322 184.313 187.089 186.08 186.81 187.94L186.655 188.932C186.252 191.474 184.888 192.714 183.028 192.714C181.075 192.714 180.083 191.474 180.455 188.932L180.672 187.475L179.339 187.475L179.06 189.428C178.657 192.156 180.176 193.985 182.842 193.985L182.842 193.985ZM197.009 193.83L199.613 193.83L201.008 183.879L207.611 183.879L207.921 181.523L201.349 181.523L202.558 172.936L209.13 172.936L209.471 170.58L200.264 170.58L197.009 193.83ZM209.936 193.83L219.143 193.83L219.484 191.35L212.881 191.35L215.795 170.58L213.191 170.58L209.936 193.83ZM222.677 193.83L231.884 193.83L232.225 191.474L225.622 191.474L226.769 183.259L233.372 183.259L233.713 180.903L227.11 180.903L228.226 172.936L234.829 172.936L235.139 170.58L225.932 170.58L222.677 193.83ZM234.488 193.83L237.123 193.83L242.269 184.964L244.904 193.83L247.539 193.83L244.222 182.205L250.794 170.58L248.159 170.58L243.044 179.415L240.378 170.58L237.743 170.58L241.091 182.205L234.488 193.83ZM250.763 193.83L252.096 193.83L255.351 170.58L254.018 170.58L250.763 193.83ZM256.436 193.83L260.869 193.83C263.535 193.83 265.581 192.032 265.953 189.273L266.387 186.018C266.635 184.127 266.139 182.732 264.651 181.926C265.953 181.027 266.666 179.725 266.883 178.175L267.317 175.137C267.72 172.378 266.17 170.58 263.504 170.58L259.691 170.58L256.436 193.83ZM259.505 181.461L260.869 171.851L263.349 171.851C265.209 171.851 266.232 173.091 265.891 175.633L265.612 177.679C265.271 180.221 263.845 181.461 261.985 181.461L259.505 181.461ZM257.955 192.559L259.319 182.701L262.419 182.701C264.279 182.701 265.333 183.972 264.992 186.514L264.682 188.777C264.341 191.319 262.915 192.559 261.055 192.559L257.955 192.559ZM269.332 193.83L270.665 193.83L273.92 170.58L272.587 170.58L269.332 193.83ZM275.005 193.83L281.639 193.83L281.825 192.559L276.524 192.559L279.593 170.58L278.26 170.58L275.005 193.83ZM284.429 193.83L285.762 193.83L289.017 170.58L287.684 170.58L284.429 193.83ZM291.838 193.83L293.171 193.83L296.271 171.851L299.34 171.851L299.495 170.58L292.117 170.58L291.962 171.851L294.938 171.851L291.838 193.83ZM301.51 193.83L302.843 193.83L304.176 184.406L309.849 170.58L308.485 170.58L303.866 181.926L302.409 170.58L301.045 170.58L302.843 184.406L301.51 193.83ZM306.966 196.992C308.702 195.473 309.384 194.512 309.384 193.117C309.384 192.063 308.733 191.815 308.237 191.815C307.648 191.815 307.09 192.311 307.09 192.931C307.09 193.706 308.02 193.768 308.02 194.357C308.02 194.76 307.679 195.256 306.408 196.341L306.966 196.992ZM317.94 193.83L319.273 193.83L320.761 183.352L324.388 183.352L324.977 193.83L326.31 193.83L325.69 183.104C327.581 182.205 328.635 180.81 328.914 178.795L329.441 175.137C329.844 172.378 328.294 170.58 325.628 170.58L321.195 170.58L317.94 193.83ZM320.916 182.081L322.373 171.851L325.473 171.851C327.333 171.851 328.356 173.091 328.015 175.633L327.643 178.299C327.302 180.841 325.876 182.081 324.016 182.081L320.916 182.081ZM330.464 193.83L337.098 193.83L337.284 192.59L331.983 192.59L333.347 182.701L338.648 182.701L338.834 181.461L333.533 181.461L334.897 171.82L340.198 171.82L340.353 170.58L333.719 170.58L330.464 193.83ZM341.097 193.83L345.53 193.83C348.196 193.83 350.211 192.032 350.614 189.273L352.598 175.137C352.97 172.378 351.451 170.58 348.785 170.58L344.352 170.58L341.097 193.83ZM342.616 192.559L345.53 171.851L348.63 171.851C350.49 171.851 351.544 173.091 351.172 175.633L349.343 188.777C349.002 191.319 347.576 192.559 345.716 192.559L342.616 192.559ZM353.993 193.83L360.627 193.83L360.813 192.59L355.512 192.59L356.876 182.701L362.177 182.701L362.363 181.461L357.062 181.461L358.426 171.82L363.727 171.82L363.882 170.58L357.248 170.58L353.993 193.83ZM364.626 193.83L365.959 193.83L367.447 183.321L372.748 183.321L372.903 182.081L367.602 182.081L369.059 171.82L374.36 171.82L374.515 170.58L367.881 170.58L364.626 193.83ZM375.135 193.83L376.468 193.83L379.723 170.58L378.39 170.58L375.135 193.83ZM380.808 193.83L382.048 193.83L384.776 174.517L389.829 193.83L390.821 193.83L394.076 170.58L392.836 170.58L390.139 189.862L385.055 170.58L384.063 170.58L380.808 193.83ZM395.161 193.83L401.795 193.83L401.981 192.59L396.68 192.59L398.044 182.701L403.345 182.701L403.531 181.461L398.23 181.461L399.594 171.82L404.895 171.82L405.05 170.58L398.416 170.58L395.161 193.83ZM405.794 193.83L410.227 193.83C412.893 193.83 414.908 192.032 415.311 189.273L417.295 175.137C417.667 172.378 416.148 170.58 413.482 170.58L409.049 170.58L405.794 193.83ZM407.313 192.559L410.227 171.851L413.327 171.851C415.187 171.851 416.241 173.091 415.869 175.633L414.04 188.777C413.699 191.319 412.273 192.559 410.413 192.559L407.313 192.559Z" id="path_3" />
    <clipPath id="clip_1">
      <use xlink:href="#path_1" clip-rule="evenodd" fill-rule="evenodd" />
    </clipPath>
  </defs>
  <g id="Frame">
    <path d="M442 0L442 0L442 219L0 219L0 0L442 0Z" id="Frame" fill="none" stroke="none" />
    <path d="M53 86L53 32L69 32L69 86L53 86Z" transform="rotate(90 61 59)" id="Rectangle" fill="#1848F5" fill-rule="evenodd" stroke="none" clip-path="url(#clip_1)" />
    <path d="M266.804 23L413 23Q413.221 23 413.442 23.0108Q413.662 23.0217 413.882 23.0433Q414.102 23.065 414.321 23.0974Q414.539 23.1298 414.756 23.1729Q414.973 23.216 415.187 23.2697Q415.401 23.3234 415.613 23.3875Q415.824 23.4517 416.032 23.5261Q416.24 23.6005 416.444 23.6851Q416.648 23.7696 416.848 23.8641Q417.048 23.9586 417.243 24.0627Q417.437 24.1669 417.627 24.2804Q417.816 24.394 418 24.5168Q418.184 24.6395 418.361 24.7711Q418.539 24.9027 418.71 25.0429Q418.88 25.1831 419.044 25.3314Q419.208 25.4798 419.364 25.636Q419.52 25.7923 419.669 25.956Q419.817 26.1197 419.957 26.2905Q420.097 26.4612 420.229 26.6387Q420.361 26.8162 420.483 26.9999Q420.606 27.1836 420.72 27.3731Q420.833 27.5626 420.937 27.7574Q421.041 27.9523 421.136 28.152Q421.23 28.3517 421.315 28.5558Q421.399 28.76 421.474 28.968Q421.548 29.176 421.612 29.3874Q421.677 29.5989 421.73 29.8132Q421.784 30.0275 421.827 30.2442Q421.87 30.4609 421.903 30.6794Q421.935 30.898 421.957 31.1178Q421.978 31.3377 421.989 31.5584Q422 31.7791 422 32L422 149Q422 149.221 421.989 149.442Q421.978 149.662 421.957 149.882Q421.935 150.102 421.903 150.321Q421.87 150.539 421.827 150.756Q421.784 150.973 421.73 151.187Q421.677 151.401 421.613 151.613Q421.548 151.824 421.474 152.032Q421.4 152.24 421.315 152.444Q421.23 152.648 421.136 152.848Q421.042 153.048 420.937 153.243Q420.833 153.437 420.72 153.627Q420.606 153.816 420.483 154Q420.361 154.184 420.229 154.361Q420.097 154.539 419.957 154.71Q419.817 154.88 419.669 155.044Q419.52 155.208 419.364 155.364Q419.208 155.52 419.044 155.669Q418.88 155.817 418.71 155.957Q418.539 156.097 418.361 156.229Q418.184 156.361 418 156.483Q417.816 156.606 417.627 156.72Q417.438 156.833 417.243 156.937Q417.048 157.041 416.848 157.136Q416.648 157.23 416.444 157.315Q416.24 157.4 416.032 157.474Q415.824 157.548 415.613 157.613Q415.401 157.677 415.187 157.73Q414.973 157.784 414.756 157.827Q414.539 157.87 414.321 157.903Q414.102 157.935 413.882 157.957Q413.662 157.978 413.442 157.989Q413.221 158 413 158L240.676 158Q240.381 158 240.087 157.981Q239.792 157.961 239.499 157.923Q239.207 157.884 238.917 157.826Q238.628 157.769 238.343 157.692Q238.058 157.616 237.778 157.521Q237.499 157.426 237.226 157.313Q236.954 157.199 236.689 157.069Q236.425 156.938 236.169 156.79Q235.914 156.642 235.668 156.478Q235.423 156.314 235.189 156.134Q234.955 155.954 234.734 155.759Q234.512 155.564 234.303 155.355Q234.095 155.146 233.901 154.924Q233.707 154.702 233.527 154.467Q233.348 154.233 233.184 153.987Q233.021 153.741 232.874 153.486L205 105L259.419 26.8567Q259.573 26.6345 259.741 26.422Q259.909 26.2095 260.089 26.0074Q260.27 25.8054 260.462 25.6146Q260.654 25.4238 260.857 25.2448Q261.06 25.0659 261.274 24.8995Q261.487 24.7331 261.711 24.5799Q261.934 24.4266 262.166 24.2871Q262.398 24.1475 262.638 24.0222Q262.878 23.8969 263.125 23.7862Q263.372 23.6755 263.626 23.5799Q263.879 23.4842 264.138 23.404Q264.396 23.3238 264.659 23.2593Q264.922 23.1947 265.189 23.1461Q265.455 23.0975 265.724 23.065Q265.993 23.0325 266.263 23.0162Q266.533 23 266.804 23Z" id="Path" fill="#4C036C" fill-rule="evenodd" stroke="none" clip-path="url(#clip_1)" />
    <g id="Path" clip-path="url(#clip_1)">
      <use stroke="none" fill="#5504A8" xlink:href="#path_2" fill-rule="evenodd" />
      <use stroke="none" fill="#FFFFFF" xlink:href="#path_2" fill-rule="evenodd" />
    </g>
    <g id="Path" clip-path="url(#clip_1)">
      <use stroke="none" fill="#d3d3d3" xlink:href="#path_3" fill-rule="evenodd" />
      <use stroke="none" fill="#d3d3d3" xlink:href="#path_3" fill-rule="evenodd" />
    </g>
    <path d="M98.0012 22.9451L114 23L102 139.001C102 139.001 101.516 142.981 107 143C112.484 143.02 135 143 135 143C135 143 139.404 142.765 142 139.001C144.596 135.236 159.488 114.338 159.488 114.338L168.193 129.284L151.5 153C151.5 153 148.389 158.959 137 159C125.611 159.042 91.5 158.5 91.5 158.5C91.5 158.5 83.5447 158.64 84.5 149.5C85.4553 140.36 98.0012 22.9451 98.0012 22.9451Z" id="Path" fill="#1848F5" fill-rule="evenodd" stroke="none" clip-path="url(#clip_1)" />
    <path d="M187.148 74.8816L223.5 23L243.5 23L196 90.5L187.148 74.8816Z" id="Path" fill="#1848F5" fill-rule="evenodd" stroke="none" clip-path="url(#clip_1)" />
    <path d="M124 120L124 91Q124 90.8773 124.006 90.7547Q124.012 90.6321 124.024 90.5099Q124.036 90.3878 124.054 90.2663Q124.072 90.1449 124.096 90.0245Q124.12 89.9042 124.15 89.7851Q124.18 89.666 124.215 89.5486Q124.251 89.4311 124.292 89.3155Q124.334 89.2 124.381 89.0866Q124.428 88.9732 124.48 88.8622Q124.533 88.7513 124.59 88.643Q124.648 88.5348 124.711 88.4295Q124.774 88.3242 124.843 88.2221Q124.911 88.1201 124.984 88.0215Q125.057 87.9229 125.135 87.828Q125.213 87.7331 125.295 87.6422Q125.378 87.5512 125.464 87.4645Q125.551 87.3777 125.642 87.2952Q125.733 87.2128 125.828 87.1349Q125.923 87.0571 126.022 86.984Q126.12 86.9108 126.222 86.8426Q126.324 86.7745 126.429 86.7114Q126.535 86.6483 126.643 86.5904Q126.751 86.5325 126.862 86.48Q126.973 86.4276 127.087 86.3806Q127.2 86.3336 127.316 86.2923Q127.431 86.2509 127.549 86.2153Q127.666 86.1797 127.785 86.1498Q127.904 86.12 128.025 86.0961Q128.145 86.0721 128.266 86.0541Q128.388 86.0361 128.51 86.0241Q128.632 86.0121 128.755 86.006Q128.877 86 129 86L135 86Q135.123 86 135.245 86.006Q135.368 86.012 135.49 86.0241Q135.612 86.0361 135.734 86.0541Q135.855 86.0721 135.975 86.0961Q136.096 86.12 136.215 86.1498Q136.334 86.1797 136.451 86.2153Q136.569 86.2509 136.684 86.2923Q136.8 86.3336 136.913 86.3806Q137.027 86.4276 137.138 86.48Q137.249 86.5325 137.357 86.5904Q137.465 86.6483 137.57 86.7114Q137.676 86.7745 137.778 86.8426Q137.88 86.9108 137.978 86.984Q138.077 87.0571 138.172 87.1349Q138.267 87.2128 138.358 87.2952Q138.449 87.3777 138.536 87.4645Q138.622 87.5512 138.705 87.6422Q138.787 87.7331 138.865 87.828Q138.943 87.9229 139.016 88.0215Q139.089 88.1201 139.157 88.2221Q139.226 88.3242 139.289 88.4295Q139.352 88.5348 139.41 88.643Q139.467 88.7513 139.52 88.8622Q139.572 88.9732 139.619 89.0866Q139.666 89.2 139.708 89.3155Q139.749 89.4311 139.785 89.5486Q139.82 89.666 139.85 89.7851Q139.88 89.9042 139.904 90.0245Q139.928 90.1449 139.946 90.2663Q139.964 90.3878 139.976 90.5099Q139.988 90.6321 139.994 90.7547Q140 90.8773 140 91L140 120Q140 120 140 120L124 120Q124 120 124 120Z" transform="rotate(90 132 103)" id="Rectangle" fill="#1848F5" fill-rule="evenodd" stroke="none" clip-path="url(#clip_1)" />
    <path d="M119.625 50.9507L148 51C148 51 158.349 49.2792 163.5 59C168.651 68.7208 220 158 220 158L202 158L153 73C153 73 150.447 67.0245 144 67C137.553 66.9755 118 67 118 67L119.625 50.9507Z" id="Path" fill="#1848F5" fill-rule="evenodd" stroke="none" clip-path="url(#clip_1)" />
    <path d="M22.2303 193.852L38.5 194L46.5 115C46.5 115 47.243 111.009 51.5 111C55.757 110.991 79 111 79 111L81 95L40 95C40 95 32.9971 94.2275 32 103C31.0029 111.772 22.2303 193.852 22.2303 193.852Z" id="Path" fill="#1848F5" fill-rule="evenodd" stroke="none" clip-path="url(#clip_1)" />
  </g>
</svg>